<?xml version="1.0" encoding="UTF-8"?>
<svg xmlns="http://www.w3.org/2000/svg" width="20" height="20" xmlns:xlink="http://www.w3.org/1999/xlink" viewBox="0 0 20 20">
    <path id="back" d="M.52,13.67m12.76-3.42c0,.21,.17,.38,.38,.38s.38-.17,.38-.38v-1.25c0-.21-.17-.38-.38-.38s-.38,.17-.38,.38v1.25Zm-2.5,3.42c0-.21-.17-.38-.38-.38h-1.25c-.21,0-.38,.17-.38,.38s.17,.38,.38,.38h1.25c.21,0,.38-.17,.38-.38Zm3.93,.52l-.68-.67s0,0,0-.01v-1.25c0-.21-.17-.38-.38-.38s-.38,.17-.38,.38v1.05h-.88c-.21,0-.38,.17-.38,.38s.17,.38,.38,.38h1.1l.68,.67c.07,.07,.17,.11,.26,.11s.19-.04,.27-.11c.15-.15,.15-.38,0-.53Zm2.31,2.29l-.89-.88c-.15-.15-.38-.14-.53,0-.15,.15-.15,.38,0,.53l.89,.88c.07,.07,.17,.11,.26,.11s.19-.04,.27-.11c.15-.15,.15-.38,0-.53Zm-12.73-2.81c0-.21-.17-.38-.38-.38h-1.25c-.21,0-.38,.17-.38,.38s.17,.38,.38,.38h1.25c.21,0,.38-.17,.38-.38ZM13.27,3.75c0,.21,.17,.38,.38,.38s.38-.17,.38-.38v-1.25c0-.21-.17-.38-.38-.38s-.38,.17-.38,.38v1.25Zm.75,2c0-.21-.17-.38-.38-.38s-.38,.17-.38,.38v.08h.75v-.08Zm-.38,1.62c.21,0,.38-.17,.38-.38v-.17h-.75v.17c0,.21,.17,.38,.38,.38Zm0-3.25c.21,0,.38-.17,.38-.38v-1.25c0-.21-.17-.38-.38-.38s-.38,.17-.38,.38v1.25c0,.21,.17,.38,.38,.38ZM3.9,13.3h-1.25c-.21,0-.38,.17-.38,.38s.17,.38,.38,.38h1.25c.21,0,.38-.17,.38-.38s-.17-.38-.38-.38Zm1.62,.38c0,.19,.14,.34,.32,.36v-.73c-.18,.03-.32,.18-.32,.36Zm10.59,1.93c-.15-.15-.38-.14-.53,0-.15,.15-.15,.38,0,.53l.89,.88c.07,.07,.17,.11,.26,.11s.19-.04,.27-.11c.15-.15,.15-.38,0-.53l-.89-.88Zm2.86,2.84l-.56-.55c-.15-.15-.38-.15-.53,0-.15,.15-.15,.38,0,.53l.55,.54h.54v-.52Zm-8.58-5.14h-1.25c-.21,0-.38,.17-.38,.38s.17,.38,.38,.38h1.25c.21,0,.38-.17,.38-.38s-.17-.38-.38-.38Zm3.62,.22s0,0,0-.01v-1.25c0-.21-.17-.38-.38-.38s-.38,.17-.38,.38v1.05h-.88c-.21,0-.38,.17-.38,.38s.17,.38,.38,.38h1.1l.68,.67c.07,.07,.17,.11,.26,.11s.19-.04,.27-.11c.15-.15,.15-.38,0-.53l-.68-.67Zm-.37-2.89c.21,0,.38-.17,.38-.38v-1.25c0-.21-.17-.38-.38-.38s-.38,.17-.38,.38v1.25c0,.21,.17,.38,.38,.38Zm-6.12,3.05c0-.21-.17-.38-.38-.38h-.3v.75h.3c.21,0,.38-.17,.38-.38Z" fill="#bfbfbf"/>
    <path id="front" d="M19.83,5.98h0l-.7-.69L14.7,.88s-.23-.23-.69-.69c0,0,0,0,0,0,0,0,0,0,0,0h0c-.09-.09-.21-.15-.35-.15H.52C.24,.04,.02,.26,.02,.54V13.67c0,.14,.06,.26,.15,.35,0,0,0,0,0,0,.46,.46,.7,.69,.7,.69l4.44,4.41s.23,.23,.7,.69c0,0,0,0,0,0,.09,.09,.21,.15,.35,.15h13.13c.28,0,.5-.22,.5-.5V6.33c0-.14-.06-.26-.15-.35ZM5.85,13.31v4.96L1.56,14.01s-.19-.19-.55-.54V1.74L5.3,6s.19,.19,.55,.54v6.77Zm.16-8.02L1.73,1.04H13.44c.36,.36,.55,.55,.55,.55l4.28,4.25H6.55c-.36-.36-.55-.55-.55-.55Zm.84,13.68V6.83h12.13v12.13H6.85Z" fill="#bfbfbf"/>
</svg>
