<?xml version="1.0" encoding="UTF-8"?>
<svg id="Layer_2" data-name="Layer 2" xmlns="http://www.w3.org/2000/svg" viewBox="0 0 32 32">
  <g id="icon-camera">
    <path id="camera-body" d="M29.54,32H2.46c-1.36,0-2.46-1.1-2.46-2.45V15.34c0-1.35,1.1-2.45,2.46-2.45h6.64c1.21,0,2.34-.54,3.1-1.48l.88-1.09c.75-.94,1.88-1.47,3.08-1.47h6.32c1.21,0,2.33,.54,3.08,1.47l.88,1.09c.76,.94,1.89,1.48,3.1,1.48,1.36,0,2.46,1.1,2.46,2.45v14.21c0,1.35-1.1,2.45-2.46,2.45ZM2.46,13.9c-.8,0-1.46,.65-1.46,1.45v14.21c0,.8,.65,1.45,1.46,1.45H29.54c.8,0,1.46-.65,1.46-1.45V15.34c0-.8-.65-1.45-1.46-1.45-1.52,0-2.93-.68-3.88-1.85l-.88-1.09c-.56-.7-1.4-1.1-2.3-1.1h-6.32c-.9,0-1.74,.4-2.3,1.1l-.88,1.09c-.95,1.18-2.36,1.85-3.88,1.85H2.46Zm4.25,4.85c.58,0,1.04-.46,1.04-1.03s-.47-1.03-1.04-1.03h-1.67c-.58,0-1.04,.46-1.04,1.03s.47,1.03,1.04,1.03h1.67Zm12.61-3.24c2.81,0,5.09,2.29,5.09,5.1s-2.28,5.1-5.09,5.1-5.09-2.29-5.09-5.1,2.28-5.1,5.09-5.1m0-2c-3.91,0-7.09,3.18-7.09,7.1s3.17,7.1,7.09,7.1,7.09-3.18,7.09-7.1-3.17-7.1-7.09-7.1h0Z" fill="currentColor"/>
    <path id="burst-lines" d="M19.39,3.87c-.28,0-.5-.22-.5-.5V.5c0-.28,.22-.5,.5-.5s.5,.22,.5,.5V3.37c0,.28-.22,.5-.5,.5Zm4.76,1.12l2.15-2.34c.19-.2,.17-.52-.03-.71-.2-.18-.52-.17-.71,.03l-2.15,2.34c-.19,.2-.17,.52,.03,.71,.1,.09,.22,.13,.34,.13,.13,0,.27-.05,.37-.16Zm-8.95,.03c.2-.19,.22-.5,.03-.71l-2.15-2.34c-.19-.2-.5-.21-.71-.03-.2,.19-.22,.5-.03,.71l2.15,2.34c.1,.11,.23,.16,.37,.16,.12,0,.24-.04,.34-.13Z" fill="currentColor"/>
  </g>
</svg>