<?xml version="1.0" encoding="UTF-8"?>
<svg id="icon-channels" xmlns="http://www.w3.org/2000/svg" width="20" height="20" viewBox="0 0 20 20">
  <path id="line-mid" d="M13.55,10.36h-1c-.21,0-.38-.17-.38-.38s.17-.38,.38-.38h1c.21,0,.38,.17,.38,.38s-.17,.38-.38,.38Zm-3,0h-1c-.21,0-.38-.17-.38-.38s.17-.38,.38-.38h1c.21,0,.38,.17,.38,.38s-.17,.38-.38,.38Zm-3,0h-1c-.21,0-.38-.17-.38-.38s.17-.38,.38-.38h1c.21,0,.38,.17,.38,.38s-.17,.38-.38,.38Z" fill="currentColor"/>
  <path id="line-top" d="M2.65,6.64c-.21,0-.38-.17-.38-.38v-.3c0-.26,.03-.52,.08-.78,.04-.2,.24-.33,.45-.29,.2,.04,.33,.24,.29,.45-.04,.2-.07,.41-.07,.62v.3c0,.21-.17,.38-.38,.38Zm1.06-2.7c-.1,0-.2-.04-.28-.12-.14-.15-.13-.39,.02-.53,.27-.25,.59-.46,.92-.62,.19-.09,.41,0,.5,.18s0,.41-.18,.5c-.27,.12-.51,.29-.73,.49-.07,.07-.16,.1-.25,.1Zm9.78-.86h-1c-.21,0-.38-.17-.38-.38s.17-.38,.38-.38h1c.21,0,.38,.17,.38,.38s-.17,.38-.38,.38Zm-3,0h-1c-.21,0-.38-.17-.38-.38s.17-.38,.38-.38h1c.21,0,.38,.17,.38,.38s-.17,.38-.38,.38Zm-3,0h-1c-.21,0-.38-.17-.38-.38s.17-.38,.38-.38h1c.21,0,.38,.17,.38,.38s-.17,.38-.38,.38Z" fill="currentColor"/>
  <path id="line-bottom" d="M13.44,17.69h-1c-.21,0-.38-.17-.38-.38s.17-.38,.38-.38h1c.21,0,.38,.17,.38,.38s-.17,.38-.38,.38Zm-3,0h-1c-.21,0-.38-.17-.38-.38s.17-.38,.38-.38h1c.21,0,.38,.17,.38,.38s-.17,.38-.38,.38Zm-3,0h-1c-.21,0-.38-.17-.38-.38s.17-.38,.38-.38h1c.21,0,.38,.17,.38,.38s-.17,.38-.38,.38Zm-2.95-.32c-.05,0-.11-.01-.16-.04-.33-.16-.64-.38-.91-.63-.15-.14-.16-.38-.02-.53s.38-.16,.53-.02c.22,.2,.46,.37,.73,.5,.19,.09,.26,.32,.17,.5-.06,.13-.2,.21-.34,.21Zm-1.78-2.28c-.17,0-.33-.12-.37-.3-.05-.24-.07-.48-.07-.73v-.34c0-.21,.17-.38,.38-.38s.38,.17,.38,.38v.34c0,.19,.02,.39,.06,.58,.04,.2-.09,.4-.29,.44-.02,0-.05,0-.08,0Z" fill="currentColor"/>
  <path id="channel-composite" d="M5.42,12.69H.01V7.29H5.42v5.4Zm-4.4-1h3.4v-3.4H1.01v3.4Z" fill="currentColor"/>
  <path id="channel-1" d="M19.99,5.41h-5.4V0h5.4V5.41Zm-4.4-1h3.4V1h-3.4v3.4Z" fill="currentColor"/>
  <path id="channel-2" d="M19.99,12.69h-5.4V7.29h5.4v5.4Zm-4.4-1h3.4v-3.4h-3.4v3.4Z" fill="currentColor"/>
  <path id="channel-3" d="M19.99,19.97h-5.4v-5.4h5.4v5.4Zm-4.4-1h3.4v-3.4h-3.4v3.4Z" fill="currentColor"/>
</svg>