<?xml version="1.0" encoding="UTF-8"?>
<svg id="icon-openPanel" xmlns="http://www.w3.org/2000/svg" width="20" height="20" viewBox="0 0 20 20">
  <path id="chevron-2" d="M10.64,17.78c-.21,0-.41-.06-.59-.2-.44-.33-.54-.96-.21-1.4l4.59-6.21L9.83,3.76c-.33-.44-.23-1.07,.21-1.4,.44-.33,1.07-.23,1.4,.21l5.03,6.8c.26,.35,.26,.84,0,1.19l-5.03,6.81c-.2,.27-.5,.41-.81,.41Z" fill="currentColor"/>
  <path id="chevron-1" d="M4.33,17.84c-.21,0-.41-.06-.59-.2-.44-.33-.54-.96-.21-1.4l4.59-6.21L3.53,3.82c-.33-.44-.23-1.07,.21-1.4,.44-.33,1.07-.23,1.4,.21l5.03,6.81c.26,.35,.26,.83,0,1.19l-5.03,6.81c-.2,.27-.5,.41-.81,.41Z" fill="currentColor"/>
</svg>