<?xml version="1.0" encoding="UTF-8"?>
<svg id="Layer_2" data-name="Layer 2" xmlns="http://www.w3.org/2000/svg" viewBox="0 0 32 32">
  <g id="icon-metadata">
    <path id="lines" d="M19.46,21.54c0-.28-.22-.5-.5-.5H.5c-.28,0-.5,.22-.5,.5s.22,.5,.5,.5H18.96c.28,0,.5-.22,.5-.5Zm3.52-14.03c0-.28-.22-.5-.5-.5H.51C.23,7.01,0,7.24,0,7.51s.22,.5,.5,.5H22.48c.28,0,.5-.22,.5-.5Zm-4.74,7.01c0-.28-.22-.5-.5-.5H.5c-.28,0-.5,.22-.5,.5s.22,.5,.5,.5H17.75c.28,0,.5-.22,.5-.5ZM32,.5c0-.28-.22-.5-.5-.5H.54C.26,0,.04,.22,.04,.5s.22,.5,.5,.5H31.5c.28,0,.5-.22,.5-.5Z" fill="currentColor"/>
    <path id="i" d="M23.62,14.79l.16-.56h6.29l-4.67,13.66c-.13,.4-.26,.81-.4,1.23-.13,.42-.2,.81-.2,1.19,0,.32,.09,.6,.28,.83,.18,.23,.46,.34,.83,.34,.42,0,.84-.15,1.25-.44s.78-.64,1.13-1.03c.34-.39,.63-.79,.87-1.19s.41-.73,.51-.97l.47,.2c-.11,.21-.27,.54-.49,.99-.23,.44-.53,.89-.93,1.33-.39,.44-.88,.83-1.46,1.15s-1.26,.48-2.06,.48c-.87,0-1.56-.18-2.08-.54s-.77-.97-.77-1.83c0-.46,.08-.96,.24-1.51,.16-.55,.32-1.05,.48-1.51l4.07-11.81h-3.52Zm4.67-6.57c0,.54,.18,.99,.53,1.35s.8,.54,1.32,.54,.97-.18,1.32-.54,.53-.81,.53-1.35-.18-.99-.53-1.35-.8-.54-1.32-.54-.97,.18-1.32,.54-.53,.81-.53,1.35Z" fill="currentColor"/>
  </g>
</svg>