<?xml version="1.0" encoding="UTF-8"?><svg id="b" xmlns="http://www.w3.org/2000/svg" viewBox="0 0 25.54 32"><g id="c"><g id="d"><path id="e" d="M24.88,6.48H.56c-.28,0-.5-.22-.5-.5s.22-.5,.5-.5H24.88c.28,0,.5,.22,.5,.5s-.22,.5-.5,.5Zm-11.39,15.95c0-.28-.22-.5-.5-.5H.5c-.28,0-.5,.22-.5,.5s.22,.5,.5,.5H12.99c.28,0,.5-.22,.5-.5Zm3.03-10.97c0-.28-.22-.5-.5-.5H.51C.23,10.97,0,11.19,0,11.47s.22,.5,.5,.5h15.51c.28,0,.5-.22,.5-.5Zm-4.02,5.48c0-.28-.22-.5-.5-.5H.5c-.28,0-.5,.22-.5,.5s.22,.5,.5,.5H12c.28,0,.5-.22,.5-.5ZM25.51,.5c0-.28-.22-.5-.5-.5H.51C.23,0,0,.22,0,.5s.22,.5,.5,.5H25.01c.28,0,.5-.22,.5-.5Z" fill="currentColor"/><path id="f" d="M18.3,17.14l.14-.49h5.43l-4.03,11.8c-.11,.35-.23,.7-.34,1.06-.11,.36-.17,.7-.17,1.03,0,.28,.08,.52,.24,.71,.16,.2,.4,.3,.72,.3,.36,0,.72-.13,1.08-.38s.68-.55,.97-.89c.3-.34,.55-.68,.75-1.03s.35-.63,.44-.83l.41,.17c-.09,.19-.23,.47-.43,.85-.19,.38-.46,.77-.8,1.15-.34,.38-.76,.71-1.26,.99s-1.09,.42-1.78,.42c-.75,0-1.35-.16-1.79-.47s-.67-.84-.67-1.58c0-.39,.07-.83,.2-1.31,.14-.47,.27-.91,.41-1.3l3.52-10.2h-3.04Zm4.03-5.67c0,.46,.15,.85,.46,1.16s.69,.47,1.14,.47,.84-.16,1.14-.47,.46-.7,.46-1.16-.15-.85-.46-1.17-.69-.47-1.14-.47-.84,.16-1.14,.47-.46,.7-.46,1.17Z" fill="currentColor"/></g></g></svg>