<?xml version="1.0" encoding="UTF-8"?>
<svg id="icon-preferences" xmlns="http://www.w3.org/2000/svg" width="20" height="20" viewBox="0 0 20 20">
  <path id="bar-1" d="M8.04,3.61H.81C.39,3.61,.06,3.27,.06,2.86s.34-.75,.75-.75h7.23v1.5Zm11.15-1.5h-5.65v1.5h5.65c.41,0,.75-.34,.75-.75s-.34-.75-.75-.75Z" fill="#bfbfbf"/>
  <path id="slider-head-1" d="M10.79,5.61c-.41,0-.75-.34-.75-.75V.85c0-.41,.34-.75,.75-.75s.75,.34,.75,.75V4.86c0,.41-.34,.75-.75,.75Z" fill="#bfbfbf"/>
  <path id="bar-2" d="M2.81,10.75H.81c-.41,0-.75-.34-.75-.75s.34-.75,.75-.75H2.81v1.5Zm16.38-1.5H8.31v1.5h10.88c.41,0,.75-.34,.75-.75s-.34-.75-.75-.75Z" fill="#bfbfbf"/>
  <path id="slider-head-2" d="M5.56,12.76c-.41,0-.75-.34-.75-.75V7.99c0-.41,.34-.75,.75-.75s.75,.34,.75,.75v4.01c0,.41-.34,.75-.75,.75Z" fill="#bfbfbf"/>
  <path id="bar-3" d="M19.94,17.14c0,.41-.34,.75-.75,.75h-3.08v-1.5h3.08c.41,0,.75,.34,.75,.75Zm-9.33-.75H.81c-.41,0-.75,.34-.75,.75s.34,.75,.75,.75H10.61v-1.5Z" fill="#bfbfbf"/>
  <path id="slider-head-3" d="M13.36,19.9c-.41,0-.75-.34-.75-.75v-4.01c0-.41,.34-.75,.75-.75s.75,.34,.75,.75v4.01c0,.41-.34,.75-.75,.75Z" fill="#bfbfbf"/>
</svg>